<svg version="1.1" id="Layer_1" xmlns="http://www.w3.org/2000/svg" xmlns:xlink="http://www.w3.org/1999/xlink" x="0px" y="0px"
	 width="100%" viewBox="0 0 144 158" enable-background="new 0 0 144 158" xml:space="preserve">
<path fill="#C9A84C" opacity="1.000000" stroke="none" 
	d="
M65.177200,16.129683 
	C68.597679,13.700780 71.556633,14.073351 74.777214,15.954725 
	C90.589584,25.191877 106.499977,34.261154 122.319687,43.485878 
	C128.823959,47.278622 128.886017,50.865410 122.362350,54.873360 
	C106.332809,64.721413 90.259094,74.503616 74.005478,83.973015 
	C72.029930,85.123970 68.353737,85.129501 66.305595,84.058990 
	C59.385109,80.441795 52.846592,76.094757 46.154442,72.039291 
	C43.048489,70.157074 41.321766,67.620338 43.510586,64.195480 
	C45.572170,60.969719 48.550217,61.551392 51.404736,63.263191 
	C56.545273,66.345863 61.561172,69.658775 66.850166,72.457863 
	C68.442429,73.300537 71.237213,73.568565 72.681686,72.727249 
	C85.473930,65.276581 98.086197,57.516911 112.107918,49.027325 
	C110.742546,48.454563 109.962143,48.221130 109.275459,47.825157 
	C97.304535,40.922153 85.403633,33.893429 73.314857,27.204033 
	C71.657150,26.286728 68.629608,26.231081 66.994781,27.140314 
	C53.320320,34.745529 39.774788,42.588570 26.340652,50.611523 
	C24.834318,51.511116 23.414431,53.963081 23.389624,55.715469 
	C23.170374,71.203552 23.166943,86.698044 23.424471,102.185234 
	C23.456205,104.093666 24.914755,106.718964 26.521219,107.743927 
	C39.853767,116.250404 53.346966,124.507736 66.887848,132.680908 
	C68.244148,133.499573 70.718422,134.068069 71.864365,133.388214 
	C84.989250,125.601669 97.957146,117.550499 111.526772,109.226433 
	C109.461136,107.779785 107.490387,107.067589 106.705719,105.683144 
	C105.695816,103.901306 104.597397,100.844528 105.425964,99.674301 
	C106.511902,98.140572 109.955704,96.700623 111.482674,97.348335 
	C116.187027,99.343834 120.671440,102.059898 124.841179,105.053360 
	C128.552277,107.717529 127.806137,111.133186 123.059326,114.106163 
	C112.340553,120.819450 101.531128,127.387917 90.766365,134.027893 
	C85.523262,137.261978 80.254738,140.457901 75.079002,143.797089 
	C71.599785,146.041763 68.458084,145.961334 64.898872,143.728256 
	C49.244423,133.906540 33.506950,124.216019 17.735420,114.582962 
	C14.424721,112.560829 12.824364,110.016144 12.849616,106.048302 
	C12.964102,88.059052 12.978155,70.068123 12.847807,52.079113 
	C12.817210,47.856419 14.637373,45.305157 18.150860,43.294785 
	C33.755650,34.365894 49.290043,25.313986 65.177200,16.129683 
z"/>
<path fill="#E0C675" opacity="1.000000" stroke="none" 
	d="
M105.939163,94.933746 
	C95.522659,101.256317 85.363716,107.305542 75.350731,113.587402 
	C71.640434,115.915131 68.437981,115.958595 64.746902,113.549225 
	C58.895313,109.729584 52.832676,106.230415 46.821823,102.658783 
	C43.663403,100.782066 41.180782,98.387886 43.328957,94.613976 
	C45.491245,90.815262 48.738960,91.657219 51.938946,93.655998 
	C56.880192,96.742393 61.810097,99.868546 66.932167,102.630363 
	C68.419212,103.432175 71.008781,103.841537 72.307732,103.084145 
	C85.231506,95.548592 97.990601,87.730606 111.366241,79.647957 
	C109.489014,78.292000 107.523575,77.571411 106.830780,76.205376 
	C105.832664,74.237312 104.742134,71.222519 105.588593,69.732155 
	C106.373711,68.349800 110.072083,67.325844 111.746651,67.995941 
	C116.181755,69.770676 120.368599,72.318939 124.366425,74.990143 
	C128.345825,77.649025 128.216446,81.077515 124.114685,83.752884 
	C118.260391,87.571358 112.217171,91.100189 105.939163,94.933746 
z"/>
</svg>
