<svg fill="none" height="60" width="353" xmlns="http://www.w3.org/2000/svg"><path d="M27.379 38.914c-.27-3.452-1.937-6.256-4.519-7.874 3.12-1.618 5.056-4.26 5.056-8.143 0-6.85-4.625-11.649-12.479-11.649H0v37.75h7.154V34.816h8.122c2.797 0 4.787 2.05 5.056 4.908L21.247 49h7.046l-.914-10.085zM7.154 17.234h7.96c4.196 0 5.918 2.643 5.918 5.663s-1.722 5.77-5.917 5.77H7.154zm26.201-7.064v7.388h7.1v-7.389h-7.1zm.269 38.828h6.616v-27.18h-6.616zm30.842-27.18v3.074c-1.56-2.103-4.518-3.505-7.906-3.505-8.069 0-12.802 5.716-12.802 14.021S48.49 49.43 56.668 49.43c3.388 0 6.508-1.348 7.852-3.452v3.883c0 2.859-1.882 4.854-4.518 4.854h-12.48V60h13.394c6.079 0 10.166-3.829 10.166-9.492v-28.69h-6.615zm-6.884 21.895c-4.411 0-7.262-3.29-7.262-8.305s2.85-8.305 7.261-8.305c4.465 0 7.37 3.29 7.37 8.305 0 5.016-2.905 8.305-7.37 8.305zm18.851 5.285h6.562v-14.83c0-3.99 2.636-6.903 6.293-6.903 3.39 0 5.702 2.589 5.702 6.31v15.423h6.562V32.174c0-6.364-3.98-10.786-10.058-10.786-3.873 0-6.993 1.672-8.499 4.638V10.17h-6.562zm32.132-35.377v8.197h-5.325v5.555h5.325v12.134c0 6.04 3.873 9.492 9.79 9.492h4.357v-5.61h-3.604c-2.474 0-3.927-1.401-3.927-4.152V27.373h7.531v-5.555h-7.531v-8.197zm34.658 35.809c9.251 0 16.136-5.34 16.889-13.159h-7.1c-.645 4.099-4.626 6.957-9.789 6.957-6.563 0-11.511-4.53-11.511-13.105s4.948-13.158 11.511-13.158c5.056 0 9.036 2.858 9.574 7.01h7.423c-1.022-7.82-7.907-13.158-16.997-13.158-9.844 0-18.665 6.471-18.665 19.306s8.66 19.307 18.665 19.307zm31.12-28.043c-7.046 0-11.618 4.206-11.941 9.6h5.917c.107-2.428 2.205-4.639 5.701-4.639 3.497 0 5.541 1.888 5.541 4.53 0 1.079-.646 1.834-1.991 1.834h-5.002c-6.078 0-10.166 3.29-10.166 8.575 0 4.691 3.657 8.143 9.036 8.143 3.873 0 6.993-1.78 8.123-4.476v4.044h6.508V31.526c0-6.147-4.841-10.138-11.726-10.138zm-1.345 23.135c-2.474 0-4.195-1.402-4.195-3.505 0-2.373 1.882-3.937 4.679-3.937h6.079v.432c0 4.098-2.421 7.01-6.563 7.01zM190.608 60h6.563V46.032c1.506 2.104 4.41 3.398 7.691 3.398 7.961 0 13.071-5.717 13.071-14.022s-4.787-14.021-12.587-14.021c-3.603 0-6.562 1.51-8.175 3.829v-3.398h-6.563zm13.501-16.287c-4.464 0-7.369-3.29-7.369-8.305s2.905-8.305 7.369-8.305c4.357 0 7.262 3.29 7.262 8.305 0 5.016-2.905 8.305-7.262 8.305zm16.656-33.543v7.388h7.101v-7.389h-7.101zm.269 38.828h6.616v-27.18h-6.616zm14.545-35.377v8.197h-5.325v5.555h5.325v12.134c0 6.04 3.873 9.492 9.789 9.492h4.357v-5.61h-3.604c-2.474 0-3.926-1.401-3.926-4.152V27.373h7.53v-5.555h-7.53v-8.197zm27.463 7.766c-7.046 0-11.618 4.206-11.941 9.6h5.917c.107-2.428 2.205-4.639 5.701-4.639 3.497 0 5.541 1.888 5.541 4.53 0 1.079-.646 1.834-1.99 1.834h-5.003c-6.078 0-10.166 3.29-10.166 8.575 0 4.691 3.658 8.143 9.037 8.143 3.872 0 6.992-1.78 8.122-4.476v4.044h6.508V31.526c0-6.147-4.841-10.138-11.726-10.138zm-1.345 23.135c-2.474 0-4.195-1.402-4.195-3.505 0-2.373 1.883-3.937 4.68-3.937h6.078v.432c0 4.098-2.421 7.01-6.563 7.01zm17.61 4.476h6.563V10.17h-6.563z" fill="#000"/><path d="M352.881 21.749 343.735 0l-21.434 11.395 3.258 6.158 10.211-5.43-4.589 13.56a94 94 0 0 1-3.2 7.99c-1.221 2.662-2.245 4.468-3.055 5.689-1.613 2.071-2.203.142-2.203.142l-.002.004a23.532 23.532 0 0 1-.274-.942c-1.69-6.299-4.648-14.717-10.802-15.09-6.995-.422-11.596 9.52-15.707 19.741-.412 1.025-.802 1.994-1 2.401-3.002 6.177-5.514 7.967-5.54 7.984 0 0-2.86 2.055-.936 4.809s4.633 1.092 4.633 1.092c.671-.409 4.214-2.852 8.092-10.833.305-.626.679-1.557 1.198-2.846 1.082-2.689 2.717-6.752 4.613-10.146.872-1.562 1.622-2.658 2.241-3.43.228-.274 1.951-2.172 3.677.384.784 1.45 1.769 3.835 2.818 7.745.545 2.03 2.203 8.211 7.221 8.372.064.002.127.003.192.003 3.701 0 7.004-3.455 10.677-11.155 2.276-4.77 3.875-9.482 3.941-9.678l4.533-13.395 4.178 9.932z" fill="#4966D0"/></svg>